<?xml version="1.0" encoding="utf-8"?>
<!-- Generator: Adobe Illustrator 25.4.1, SVG Export Plug-In . SVG Version: 6.00 Build 0)  -->
<svg version="1.1" id="图层_1" xmlns="http://www.w3.org/2000/svg" xmlns:xlink="http://www.w3.org/1999/xlink" x="0px" y="0px"
	 viewBox="0 0 1024 1024" style="enable-background:new 0 0 1024 1024;" xml:space="preserve">
<style type="text/css">
	.st0{display:none;}
	.st1{display:inline;}
	.st2{display:inline;fill:none;}
</style>
<g class="st0">
	<path class="st1" d="M437.3,234.51l-152.05,46.32c-17.14,5.22-26.8,23.35-21.58,40.48c4.26,13.99,17.12,22.99,31.02,22.99
		c3.13,0,6.32-0.46,9.46-1.42l152.05-46.32c17.14-5.22,26.8-23.35,21.58-40.48C472.56,238.95,454.43,229.29,437.3,234.51z"/>
	<path class="st1" d="M437.3,362.11l-152.05,46.32c-17.14,5.22-26.8,23.35-21.58,40.48c4.26,13.99,17.12,22.99,31.02,22.99
		c3.13,0,6.32-0.46,9.46-1.42l152.05-46.32c17.14-5.22,26.8-23.35,21.58-40.48C472.56,366.54,454.43,356.88,437.3,362.11z"/>
	<path class="st1" d="M437.3,489.7l-152.05,46.32c-17.14,5.22-26.8,23.35-21.58,40.48c4.26,13.99,17.12,22.99,31.02,22.99
		c3.13,0,6.32-0.46,9.46-1.42l152.05-46.32c17.14-5.22,26.8-23.35,21.58-40.48C472.56,494.13,454.43,484.47,437.3,489.7z"/>
	<path class="st1" d="M649.33,450.65l65.96,19.46c3.06,0.9,6.15,1.33,9.19,1.33c14.01,0,26.93-9.15,31.1-23.27
		c5.07-17.18-4.75-35.22-21.93-40.29l-65.96-19.46c-17.19-5.07-35.22,4.75-40.29,21.93C622.33,427.54,632.15,445.58,649.33,450.65z"
		/>
	<path class="st1" d="M741.23,960.18c-120.44,0-218.42-97.98-218.42-218.42s97.98-218.42,218.42-218.42s218.42,97.98,218.42,218.42
		S861.67,960.18,741.23,960.18z M741.23,599.03c-78.7,0-142.73,64.03-142.73,142.73s64.03,142.73,142.73,142.73
		s142.73-64.03,142.73-142.73S819.93,599.03,741.23,599.03z"/>
	<path class="st1" d="M494.66,829.34H223.3V238.06c0-2.94,1.88-5.51,4.69-6.4l289.32-91.76c2.68-0.85,4.74,0.06,6,0.98
		c1.25,0.92,2.75,2.6,2.75,5.42v446.74c20.08-28.97,45.85-53.71,75.69-72.58V303.52l179.49,56.92v122.7
		c26.78,4.13,52.22,12.34,75.69,23.96V359.12c0-32.34-20.71-60.64-51.54-70.42l-203.64-64.58v-77.81c0-26.57-12.3-50.81-33.73-66.5
		c-21.44-15.69-48.26-20.08-73.58-12.05L205.1,159.51c-34.39,10.91-57.49,42.47-57.49,78.55v591.28H104.9
		c-22.39,0-40.55,18.15-40.55,40.55v0c0,22.39,18.15,40.55,40.55,40.55l433.76-3.23C519.82,884.18,504.83,857.9,494.66,829.34z"/>
	<path class="st1" d="M812.91,703.91h-33.83v-33.83c0-20.9-16.94-37.84-37.84-37.84s-37.84,16.94-37.84,37.84v33.83h-33.83
		c-20.9,0-37.84,16.94-37.84,37.84c0,20.9,16.94,37.84,37.84,37.84h33.83v33.83c0,20.9,16.94,37.84,37.84,37.84
		s37.84-16.94,37.84-37.84V779.6h33.83c20.9,0,37.84-16.94,37.84-37.84C850.75,720.86,833.81,703.91,812.91,703.91z"/>
</g>
<g class="st0">
	<path class="st1" d="M205.57,292.97c0-20.71,16.79-37.5,37.5-37.5h367.41c20.71,0,37.5,16.79,37.5,37.5v0
		c0,20.71-16.79,37.5-37.5,37.5H243.07C222.36,330.47,205.57,313.68,205.57,292.97L205.57,292.97z"/>
	<path class="st1" d="M427.32,664.72c0,20.71-16.79,37.5-37.5,37.5H243.07c-20.71,0-37.5-16.79-37.5-37.5v0
		c0-20.71,16.79-37.5,37.5-37.5h146.75C410.53,627.22,427.32,644.01,427.32,664.72L427.32,664.72z"/>
	<path class="st1" d="M488.19,478.85c0,20.71-16.79,37.5-37.5,37.5H243.07c-20.71,0-37.5-16.79-37.5-37.5v0
		c0-20.71,16.79-37.5,37.5-37.5h207.62C471.4,441.34,488.19,458.13,488.19,478.85L488.19,478.85z"/>
	<path class="st1" d="M811.07,627.01v184.49c0,39.84-29.75,72.26-66.32,72.26H208.88c-36.57,0-66.32-32.42-66.32-72.26V212.51
		c0-39.84,29.75-72.26,66.32-72.26h535.87c36.57,0,66.32,32.42,66.32,72.26v62.75c12.95-9.53,28.53-14.68,44.9-14.68
		c10.94,0,21.51,2.32,31.19,6.68v-54.75c0-81.8-63.88-148.35-142.41-148.35H208.88c-78.52,0-142.41,66.55-142.41,148.35v598.99
		c0,81.8,63.88,148.35,142.41,148.35h535.87c78.52,0,142.41-66.55,142.41-148.35V550.92L811.07,627.01z"/>
	<path class="st1" d="M948.01,382.63l-69.08-69.07c-12.69-12.68-33.25-12.68-45.93,0l-65.08,65.1L502.07,644.51
		c-4.06,4.05-7.32,11.87-7.32,17.52v94.54c-0.04,2.73,1.02,5.35,2.94,7.28c1.92,1.93,4.54,3,7.27,2.97h94.6
		c5.83,0,13.48-3.28,17.51-7.32l330.94-330.94C960.7,415.88,960.7,395.32,948.01,382.63z M860.35,405.12L745.19,520.26
		c-3.8,3.8-8.97,5.93-14.35,5.92c-5.38-0.01-10.53-2.16-14.32-5.99c-7.87-7.93-7.9-20.72-0.06-28.69l115.18-115.14h-0.02
		c3.81-3.8,8.97-5.94,14.35-5.93c5.38,0.01,10.53,2.17,14.32,5.99C868.16,384.37,868.19,397.16,860.35,405.12z"/>
</g>
<g class="st0">
	<path class="st1" d="M744.11,160.28C682.12,98.29,599.7,64.16,512.03,64.16c-87.67,0-170.09,34.14-232.08,96.13
		c-61.99,61.99-96.13,144.41-96.13,232.08l0,0.23c-1.49,64.68,22.42,137.56,73.11,222.8c42.58,71.61,98.2,142.37,147.27,204.8
		c29.19,37.14,56.77,72.23,78.29,103.22l25.29,36.42l26.28-35.72c21.36-29.02,46.99-60.58,74.12-93.99
		c50.27-61.9,107.24-132.06,151.53-204.59c52.51-85.99,78.84-161.88,80.51-232.05l0.01-0.36c0-0.26,0.01-0.51,0.01-0.77
		C840.24,304.69,806.1,222.27,744.11,160.28z M247.22,392.15c0.12-145.91,118.89-264.6,264.81-264.6
		c145.94,0,264.74,118.73,264.81,264.59l0,0.09c-3.29,133.7-122.27,280.21-217.87,397.94l-0.09,0.11
		c-17.5,21.55-34.16,42.07-49.71,61.93c-16.92-22.58-35.55-46.28-55.12-71.18c-93.52-118.98-209.9-267.05-206.83-387.41l0.01-0.81
		C247.23,392.58,247.23,392.37,247.22,392.15z"/>
	<path class="st1" d="M512,201.91c-91.27,0-165.52,74.25-165.52,165.52c0,91.27,74.25,165.52,165.52,165.52
		c91.27,0,165.52-74.25,165.52-165.52C677.52,276.16,603.27,201.91,512,201.91z M614.12,367.43c0,56.31-45.81,102.12-102.12,102.12
		c-56.31,0-102.12-45.81-102.12-102.12c0-56.31,45.81-102.12,102.12-102.12C568.31,265.31,614.12,311.12,614.12,367.43z"/>
	<rect x="346.43" y="152.91" class="st2" width="330.64" height="525.71"/>
</g>
<g class="st0">
	<path class="st1" d="M361.37,648.2c-14.42-2.34-28.45-5.59-41.99-9.68L224,692.82l23.7-86.34
		c-69.68-42.94-114.88-111.89-114.88-189.64c0-130.19,126.69-235.74,282.97-235.74c107.82,0,201.55,50.24,249.31,124.16
		c1.4-0.02,2.79-0.04,4.19-0.04c26.28,0,52.12,2.84,77.04,8.33c-2.72-6.52-5.67-12.99-8.92-19.38
		c-18.48-36.4-44.66-68.86-77.83-96.49c-32.25-26.87-69.58-47.88-110.96-62.46c-42.2-14.87-86.89-22.41-132.84-22.41
		s-90.65,7.54-132.84,22.41c-41.38,14.58-78.71,35.6-110.96,62.46c-33.16,27.63-59.35,60.09-77.83,96.49
		c-19.67,38.73-29.64,80.01-29.64,122.68c0,25.61,3.68,51.08,10.94,75.7c6.98,23.68,17.27,46.6,30.6,68.12
		c16.65,26.9,38.14,51.63,63.33,73.09l-11.25,40.99l-43.65,159.01l143.3-81.57l71.33-40.6c20.75,4.54,41.96,7.43,63.44,8.64
		c-4.42-7.09-8.52-14.36-12.26-21.82C372.16,682.11,365.85,665.35,361.37,648.2z"/>
	<path class="st1" d="M935.16,482.8c-15.2-30.37-36.77-57.47-64.1-80.56c-32.81-27.71-71.94-47.9-114.47-59.55
		c-24.73-6.77-50.6-10.66-77.06-11.45c-3.4-0.1-6.81-0.17-10.23-0.17c-75.78,0-147.44,25.28-201.76,71.17
		c-27.33,23.09-48.9,50.19-64.1,80.56c-16.13,32.22-24.31,66.54-24.31,102c0,22.8,3.4,45.13,10.1,66.73
		c3.72,11.99,8.45,23.77,14.21,35.27c5.93,11.84,12.84,23.18,20.66,33.98c12.25,16.91,26.76,32.49,43.44,46.58
		c54.33,45.9,125.98,71.17,201.76,71.17c23.98,0,47.81-2.56,70.84-7.6l4.78-1.05l146.38,81.32L874,764.9l4.9-4.48
		c19.68-17.98,36.14-38.19,48.91-60.06c10.18-17.44,18.04-35.93,23.36-54.96c5.51-19.74,8.31-40.12,8.31-60.6
		C959.47,549.34,951.29,515.03,935.16,482.8z M815.32,740.14l8.29,70.13l-71.6-39.78c-25.73,8.18-53.6,12.67-82.71,12.67
		c-129.68,0-234.81-88.81-234.81-198.36c0-109.55,105.13-198.37,234.81-198.37s234.81,88.81,234.81,198.37
		C904.11,647.73,869.42,703.8,815.32,740.14z"/>
	<circle class="st1" cx="328.32" cy="335.51" r="36.14"/>
	<circle class="st1" cx="596.91" cy="526.9" r="32.03"/>
	<circle class="st1" cx="749.69" cy="526.9" r="32.03"/>
	<g class="st1">
		<path d="M537.77,358.45c-8.96,3.98-17.69,8.36-26.17,13.16C522.14,371.1,531.49,366.09,537.77,358.45z"/>
		<path d="M545.08,327.5c-3.65-16.1-18.03-28.13-35.24-28.13c-19.96,0-36.14,16.18-36.14,36.14c0,9,3.3,17.23,8.75,23.56
			C501.99,346.4,522.99,335.82,545.08,327.5z"/>
	</g>
</g>
<g class="st0">
	<path class="st1" d="M923.89,64.74H100.12c-19.98,0-37.45,17.47-37.45,37.45c0,19.97,17.47,37.44,37.45,37.44h823.77
		c19.97,0,37.44-17.47,37.44-37.44C961.33,82.21,943.86,64.74,923.89,64.74L923.89,64.74z"/>
	<path class="st1" d="M838.15,661.76c-16.23,16.23-42.56,16.23-58.79,0L592.23,474.64v444.49c0,22.15-17.96,40.13-40.11,40.13
		h-80.24c-22.15,0-40.13-17.98-40.13-40.13V474.64L244.63,661.76c-16.24,16.23-42.55,16.23-58.78,0l-58.81-58.81
		c-16.23-16.24-16.23-42.55,0-58.79L458.4,212.81c1.43-1.43,27.21-17.19,53.15-17.2c26.22-0.01,52.61,15.76,54.04,17.2
		l331.36,331.36c16.24,16.25,16.24,42.56,0,58.79L838.15,661.76z"/>
</g>
<g class="st0">
	<path class="st1" d="M744.03,932.37L485.66,752.5H232.91c-91.7,0-166.31-74.54-166.31-166.16v-328.4
		c0-91.7,74.6-166.31,166.31-166.31h558.18c91.7,0,166.3,74.6,166.3,166.31v328.26c0,91.7-74.6,166.31-166.3,166.31h-47.06V932.37z
		 M232.91,161.63c-53.1,0-96.31,43.2-96.31,96.31v328.4c0,53.02,43.2,96.16,96.31,96.16h274.72l166.4,115.85V682.5h117.06
		c53.1,0,96.3-43.2,96.3-96.31V257.93c0-53.1-43.2-96.31-96.3-96.31H232.91z"/>
	<g class="st1">
		<path d="M514.77,531.71c-27.01,0-47.38,21.49-47.38,50c0,28.36,19.92,48.95,47.38,48.95c27.01,0,47.38-21.04,47.38-48.95
			C562.14,553.67,541.33,531.71,514.77,531.71z"/>
		<path d="M600.71,234.42c-19.54-17.51-46.91-26.76-79.13-26.76c-41.53,0-79.43,18.23-109.62,52.73l-4.53,5.17l44.4,40.3l4.7-5.27
			c17.3-19.39,37.43-29.65,58.22-29.65c27.38,0,44.39,16.81,44.39,43.86c0,21.86-15.32,40.4-33.06,61.86
			c-24.93,30.17-53.18,64.35-45.53,117.94l0.86,6.01h66.88l-0.89-7.79c-4.28-37.5,17.09-62.86,39.72-89.7
			c22-26.1,44.75-53.08,44.75-92.51C631.88,279.03,621.11,252.68,600.71,234.42z"/>
	</g>
</g>
<g class="st0">
	<path class="st1" d="M753.17,431.93h-1.69V303.3c0-132.26-107.22-239.48-239.48-239.48h0c-132.26,0-239.48,107.22-239.48,239.48
		v128.63h-1.69c-54.93,0-99.46,44.53-99.46,99.46v329.33c0,54.93,44.53,99.46,99.46,99.46h482.34c54.93,0,99.46-44.53,99.46-99.46
		V531.39C852.63,476.46,808.1,431.93,753.17,431.93z M332.52,303.3c0-47.94,18.67-93.01,52.57-126.91
		c33.9-33.9,78.97-52.57,126.91-52.57c47.94,0,93.01,18.67,126.91,52.57c33.9,33.9,52.57,78.97,52.57,126.91v128.63H332.52V303.3z
		 M792.63,860.72c0,21.76-17.7,39.46-39.46,39.46H270.83c-21.76,0-39.46-17.7-39.46-39.46V531.39c0-21.76,17.7-39.46,39.46-39.46
		h1.69h60h358.96h60h1.69c21.76,0,39.46,17.7,39.46,39.46V860.72z"/>
	<path class="st1" d="M512,816.98c-16.57,0-30-13.43-30-30v-177.9c0-16.57,13.43-30,30-30c16.57,0,30,13.43,30,30v177.9
		C542,803.55,528.57,816.98,512,816.98z"/>
</g>
<path class="st0" d="M888.72,441.85c22.52-18.19,43.83-38.1,63.75-59.66c11.64-12.6,10.27-32.41-2.92-43.37
	c-12.3-10.22-30.41-8.97-41.27,2.78C806.66,451.56,664.5,514.09,513.92,514.09c-152.67,0-296.16-63.97-398.02-176.48
	c-10.73-11.85-28.83-13.28-41.23-3.18l0,0c-13.3,10.84-14.85,30.63-3.34,43.35c19.8,21.88,41.02,42.11,63.46,60.59l-62.01,60.28
	c-11.88,11.55-12.15,30.54-0.6,42.42c11.55,11.88,30.54,12.15,42.42,0.6l69-67.08c34.17,22.73,70.53,41.82,108.53,57l-34.07,83.48
	c-6.26,15.34,1.1,32.85,16.44,39.11c15.34,6.26,32.85-1.1,39.11-16.44l35.4-86.72c42.94,12.29,87.51,19.81,132.98,22.21v93.06
	c0,16.57,13.43,30,30,30s30-13.43,30-30v-92.88c46.01-2.14,91.14-9.54,134.65-21.83l35.17,86.16c6.26,15.34,23.77,22.7,39.11,16.44
	c15.34-6.26,22.7-23.77,16.44-39.11l-33.77-82.73c36.99-14.62,72.45-32.94,105.86-54.7l66.45,64.6
	c11.55,11.23,30.28,10.71,41.83-1.17s11.54-30.62-0.01-41.85L888.72,441.85z"/>
<g class="st0">
	<path class="st1" d="M545.38,124c41.31,0,80.01,15.27,108.98,43c27.55,26.37,43.03,61.01,43.78,97.83l-19.17,183.85
		c-4.03,38.7-23,74.51-53.41,100.86c-31.06,26.91-71.39,41.73-113.57,41.73c-42.17,0-82.51-14.82-113.56-41.73
		c-30.4-26.34-49.37-62.16-53.41-100.86l-19.17-183.85c0.76-36.82,16.24-71.47,43.78-97.83c28.97-27.73,67.67-43,108.98-43H545.38
		 M545.38,64h-66.77c-117.52,0-212.79,91.19-212.79,203.67l19.52,187.23C296.98,566.37,394.96,651.27,512,651.27h0
		c117.04,0,215.02-84.89,226.65-196.36l19.52-187.23C758.17,155.19,662.9,64,545.38,64L545.38,64z"/>
	<path class="st1" d="M170.5,960v-74.36c0-38.28,14.91-74.26,41.97-101.33c27.07-27.07,63.05-41.97,101.33-41.97H710.2
		c38.28,0,74.26,14.91,101.33,41.97c27.07,27.07,41.97,63.05,41.97,101.33V960h60v-74.36c0-112.28-91.02-203.3-203.3-203.3H313.8
		c-112.28,0-203.3,91.02-203.3,203.3V960H170.5z"/>
</g>
<g class="st0">
	<path class="st1" d="M860.24,237.05c21.79,0,39.52,17.73,39.52,39.52v470.86c0,21.79-17.73,39.52-39.52,39.52H163.76
		c-21.79,0-39.52-17.73-39.52-39.52V276.57c0-21.79,17.73-39.52,39.52-39.52H860.24 M860.24,177.05H163.76
		c-54.96,0-99.52,44.56-99.52,99.52v470.86c0,54.96,44.56,99.52,99.52,99.52h696.48c54.96,0,99.52-44.56,99.52-99.52V276.57
		C959.76,221.6,915.21,177.05,860.24,177.05L860.24,177.05z"/>
	<path class="st1" d="M515.03,547.07L243.38,384.35c-14.21-8.51-18.83-26.94-10.32-41.15l0,0c8.51-14.21,26.94-18.83,41.15-10.32
		L514.7,476.93l234.84-143.67c14.13-8.65,32.6-4.2,41.25,9.93l0,0c8.65,14.13,4.2,32.6-9.93,41.25L515.03,547.07z"/>
</g>
<g class="st0">
	<path class="st1" d="M843.03,749.83v-51.38h55.78c13,0,23.54-10.54,23.54-23.54v0c0-13-10.54-23.54-23.54-23.54h-55.67v-59.36
		h55.67c13,0,23.54-10.54,23.54-23.54l0,0c0-13-10.54-23.54-23.54-23.54H795.95v209.6c-42.46,14.39-72.37,55.06-71.2,102.15
		c1.4,56.14,47.46,101.61,103.62,102.33c58.54,0.74,106.36-46.62,106.36-104.99C934.84,800.59,894.72,756.38,843.03,749.83z
		 M827.27,911.89c-29.97-1.24-54.29-25.65-55.43-55.62c-1.2-31.7,23.16-58.29,54.51-60.18c1.12-0.1,2.25-0.1,3.38-0.1
		c31.93,0,57.92,26,57.92,57.92C887.65,886.65,860.43,913.26,827.27,911.89z"/>
	<path class="st1" d="M490.77,651.27L490.77,651.27c117.04,0,215.02-84.89,226.65-196.36l19.52-187.23
		C736.94,155.19,641.67,64,524.15,64h-66.77C339.86,64,244.6,155.19,244.6,267.67l19.52,187.23
		C275.74,566.37,373.73,651.27,490.77,651.27z M348.41,167c28.97-27.73,67.67-43,108.98-43h66.77c41.31,0,80.01,15.27,108.98,43
		c27.55,26.37,43.03,61.01,43.78,97.83l-19.17,183.85c-4.03,38.7-23,74.51-53.41,100.86c-31.06,26.91-71.39,41.73-113.57,41.73
		c-42.17,0-82.51-14.82-113.56-41.73c-30.4-26.34-49.37-62.16-53.41-100.86l-19.17-183.85C305.38,228.01,320.86,193.36,348.41,167z"
		/>
	<path class="st1" d="M688.96,682.34H292.57c-112.28,0-203.3,91.02-203.3,203.3V960h60v-74.36c0-38.28,14.91-74.26,41.97-101.33
		c27.07-27.07,63.05-41.97,101.33-41.97h396.39c20.1,0,39.57,4.12,57.45,11.94v-63.7C728.19,685.23,708.92,682.34,688.96,682.34z"/>
</g>
<g>
	<path d="M512,255.4c-179.92,0-340.32,100.2-444.56,256.6C171.68,668.4,332.08,768.6,512,768.6S852.32,668.4,956.56,512
		C852.32,355.6,691.92,255.4,512,255.4z M869.14,527.06c-23.18,27.8-48.64,53.01-75.69,74.92c-27.13,21.99-56.09,40.85-86.08,56.06
		C645.44,689.46,579.7,705.39,512,705.39s-133.44-15.93-195.38-47.36c-29.98-15.21-58.94-34.07-86.08-56.06
		c-27.04-21.91-52.51-47.12-75.69-74.92c-4.11-4.93-8.15-9.96-12.13-15.06c3.98-5.1,8.02-10.13,12.13-15.06
		c23.18-27.8,48.64-53.01,75.69-74.92c27.13-21.99,56.09-40.85,86.08-56.06c61.94-31.42,127.68-47.36,195.38-47.36
		s133.44,15.93,195.38,47.36c29.98,15.21,58.94,34.07,86.08,56.06c27.04,21.91,52.51,47.12,75.69,74.92
		c4.11,4.93,8.15,9.96,12.13,15.06C877.29,517.1,873.25,522.13,869.14,527.06z"/>
	<path d="M512,351.41c-87.99,0-159.33,71.33-159.33,159.33c0,87.99,71.33,159.33,159.33,159.33c87.99,0,159.33-71.33,159.33-159.33
		C671.33,422.74,599.99,351.41,512,351.41z M512,610.06c-54.77,0-99.33-44.56-99.33-99.33s44.56-99.33,99.33-99.33
		s99.33,44.56,99.33,99.33S566.77,610.06,512,610.06z"/>
</g>
</svg>
